
        <svg xmlns="http://www.w3.org/2000/svg" xmlns:xlink="http://www.w3.org/1999/xlink" version="1.1" width="3192" height="2225.5916791364443" viewBox="0 0 3192 2225.5916791364443">
			
			<g transform="scale(9.6) translate(10, 10)">
				<defs id="SvgjsDefs1391"/><g id="SvgjsG1392" featureKey="rootContainer" transform="matrix(2.6916451688813487,0,0,2.6916451688813487,0,0)" fill="#fff"><path xmlns="http://www.w3.org/2000/svg" d="M116.1 78.7H0V0h116.1zM2 76.7h112.1V2H2z"/></g><g id="SvgjsG1393" featureKey="nameFeature-0" transform="matrix(2.7578597382398233,0,0,2.7578597382398233,52.690568840132215,5.905683141122118)" fill="#fff"><path d="M1.2 40 l0 -4.48 l0.84 -0.56 l0 -17.92 l-0.84 -0.56 l0 -4.48 l6.2 0 l4.16 10.6 l4.16 -10.6 l6.2 0 l0 4.48 l-0.84 0.56 l0 17.92 l0.84 0.56 l0 4.48 l-6.72 0 l0 -4.48 l0.84 -0.56 l0 -9.96 l-2.48 6.32 l-4 0 l-2.48 -6.32 l0 9.96 l0.84 0.56 l0 4.48 l-6.72 0 z M23.52 40 l0 -4.48 l0.84 -0.56 l3.64 -17.92 l-0.84 -0.56 l0 -4.48 l10.64 0 l0 4.48 l-0.84 0.56 l3.64 17.92 l0.84 0.56 l0 4.48 l-4.96 0 l-1.24 -6.16 l-5.52 0 l-1.24 6.16 l-4.96 0 z M30.76 28.8 l3.44 0 l-1.72 -8.56 z M43.040000000000006 40 l0 -4.48 l0.84 -0.56 l0 -17.92 l-0.84 -0.56 l0 -4.48 l6.72 0 l0 4.48 l-0.84 0.56 l0 17.92 l2.8 0 l0.56 -0.84 l4.48 0 l0 5.88 l-13.72 0 z M59.16000000000001 40 l0 -4.48 l0.84 -0.56 l0 -17.92 l-0.84 -0.56 l0 -4.48 l14.56 0 l0 5.88 l-4.48 0 l-0.56 -0.84 l-3.64 0 l0 6.44 l6.44 0 l0 5.04 l-6.44 0 l0 6.44 l3.64 0 l0.56 -0.84 l4.48 0 l0 5.88 l-14.56 0 z"/></g><g id="SvgjsG1394" featureKey="nameFeature-1" transform="matrix(1.6661111776342066,0,0,1.6661111776342066,54.00066670600851,106.00666745731695)" fill="#fff"><path d="M1.2 40 l0 -4.48 l0.84 -0.56 l0 -17.92 l-0.84 -0.56 l0 -4.48 l14.56 0 l0 5.88 l-4.48 0 l-0.56 -0.84 l-3.64 0 l0 6.44 l6.44 0 l0 5.04 l-6.44 0 l0 6.44 l0.84 0.56 l0 4.48 l-6.72 0 z M17.36 40 l0 -4.48 l0.84 -0.56 l3.64 -17.92 l-0.84 -0.56 l0 -4.48 l10.64 0 l0 4.48 l-0.84 0.56 l3.64 17.92 l0.84 0.56 l0 4.48 l-4.96 0 l-1.24 -6.16 l-5.52 0 l-1.24 6.16 l-4.96 0 z M24.6 28.8 l3.44 0 l-1.72 -8.56 z M40.6 40 l-3.72 -3.72 l0 -5.24 l5.04 0 l0 3.16 l0.76 0.76 l4.08 0 l0.76 -0.76 l0 -4.92 l-0.76 -0.76 l-6.16 0 l-3.72 -3.72 l0 -9.08 l3.72 -3.72 l8.24 0 l3.72 3.72 l0 5.24 l-5.04 0 l0 -3.16 l-0.76 -0.76 l-4.08 0 l-0.76 0.76 l0 4.92 l0.76 0.76 l6.16 0 l3.72 3.72 l0 9.08 l-3.72 3.72 l-8.24 0 z M54.96000000000001 40 l0 -4.48 l0.84 -0.56 l0 -17.92 l-0.84 -0.56 l0 -4.48 l6.72 0 l0 4.48 l-0.84 0.56 l0 6.44 l6.16 0 l0 -6.44 l-0.84 -0.56 l0 -4.48 l6.72 0 l0 4.48 l-0.84 0.56 l0 17.92 l0.84 0.56 l0 4.48 l-6.72 0 l0 -4.48 l0.84 -0.56 l0 -6.44 l-6.16 0 l0 6.44 l0.84 0.56 l0 4.48 l-6.72 0 z M75.28000000000002 40 l0 -4.48 l0.84 -0.56 l0 -17.92 l-0.84 -0.56 l0 -4.48 l6.72 0 l0 4.48 l-0.84 0.56 l0 17.92 l0.84 0.56 l0 4.48 l-6.72 0 z M88.12000000000002 40 l-3.72 -3.72 l0 -20.56 l3.72 -3.72 l9.08 0 l3.72 3.72 l0 20.56 l-3.72 3.72 l-9.08 0 z M90.20000000000002 34.96 l4.92 0 l0.76 -0.76 l0 -16.4 l-0.76 -0.76 l-4.92 0 l-0.76 0.76 l0 16.4 z M103.32000000000002 40 l0 -4.48 l0.84 -0.56 l0 -17.92 l-0.84 -0.56 l0 -4.48 l6.2 0 l5.84 14.96 l0 -9.92 l-0.84 -0.56 l0 -4.48 l6.72 0 l0 4.48 l-0.84 0.56 l0 22.96 l-5.36 0 l-5.84 -14.96 l0 9.92 l0.84 0.56 l0 4.48 l-6.72 0 z"/></g>
			</g>
		</svg>
	